<svg width="156" height="161" viewBox="0 0 156 161" fill="none" xmlns="http://www.w3.org/2000/svg">
<path opacity="0.5" d="M77.7999 158.621C120.563 158.621 155.23 123.875 155.23 81.014C155.23 38.153 120.563 3.40732 77.7999 3.40732C35.0365 3.40732 0.369873 38.153 0.369873 81.014C0.369873 123.875 35.0365 158.621 77.7999 158.621Z" fill="#EDEFF0"/>
<path d="M127.497 40.0793L66.9104 37.428C62.7277 37.2449 59.189 40.495 59.0064 44.6872L55.0385 135.775C54.8558 139.967 58.0985 143.514 62.2812 143.697L122.868 146.348C127.051 146.531 130.59 143.281 130.772 139.089L134.74 48.0013C134.923 43.8091 131.68 40.2623 127.497 40.0793Z" fill="#EDEFF0" stroke="#909A9F" stroke-width="2.80454"/>
<path d="M84.0602 21.525L23.9343 29.4587C18.5975 30.1629 14.8408 35.07 15.5434 40.4189L27.4169 130.813C28.1195 136.162 33.0154 139.927 38.3522 139.223L98.4781 131.289C103.815 130.585 107.572 125.678 106.869 120.329L94.9955 29.935C94.2929 24.5861 89.397 20.8208 84.0602 21.525Z" fill="white" stroke="#909A9F" stroke-width="2.80454"/>
<path d="M16.6171 40.2773C15.9926 35.5227 19.3319 31.1609 24.0757 30.5349L84.2014 22.6012C88.9455 21.9752 93.2973 25.3221 93.922 30.0767L96.0419 46.2186L18.7374 56.4191L16.6171 40.2773Z" fill="#EDEFF0"/>
<path d="M108.347 27.6252C108.94 27.5469 109.358 27.0017 109.28 26.4074C109.201 25.8131 108.657 25.3947 108.065 25.4729L100.549 26.4647C99.9558 26.5429 99.5384 27.0881 99.6165 27.6825C99.6945 28.2768 100.239 28.6952 100.831 28.6169L108.347 27.6252Z" fill="#909A9F" stroke="#909A9F" stroke-width="1.40227"/>
<path d="M82.8287 8.0026C82.7507 7.40827 82.2067 6.9899 81.6137 7.06815C81.0207 7.14639 80.6033 7.69162 80.6814 8.28595L81.6709 15.8188C81.7489 16.4131 82.2929 16.8315 82.8859 16.7533C83.4789 16.675 83.8963 16.1298 83.8182 15.5355L82.8287 8.0026Z" fill="#909A9F" stroke="#909A9F" stroke-width="1.40227"/>
<path d="M100.128 12.6486C100.492 12.173 100.403 11.4916 99.9284 11.1267C99.4539 10.7618 98.7741 10.8515 98.41 11.327L93.7952 17.3548C93.4311 17.8304 93.5206 18.5118 93.9951 18.8767C94.4696 19.2416 95.1494 19.1519 95.5135 18.6763L100.128 12.6486Z" fill="#909A9F" stroke="#909A9F" stroke-width="1.40227"/>
<path d="M86.9444 51.7979L28.966 59.4483C27.78 59.6048 26.9452 60.6953 27.1013 61.8839C27.2574 63.0726 28.3454 63.9093 29.5314 63.7528L87.5099 56.1024C88.6958 55.9459 89.5306 54.8555 89.3745 53.6668C89.2184 52.4782 88.1304 51.6414 86.9444 51.7979Z" fill="#EDEFF0"/>
<path d="M89.7726 73.3201L31.7941 80.9706C30.6081 81.1271 29.7733 82.2175 29.9294 83.4062C30.0856 84.5948 31.1735 85.4315 32.3595 85.2751L90.338 77.6246C91.5239 77.4681 92.3588 76.3777 92.2026 75.189C92.0465 74.0004 90.9585 73.1637 89.7726 73.3201Z" fill="#EDEFF0"/>
<path d="M92.5978 94.8431L34.6193 102.493C33.4333 102.65 32.5985 103.74 32.7546 104.929C32.9108 106.118 33.9987 106.954 35.1847 106.798L93.1632 99.1475C94.3491 98.9911 95.184 97.9006 95.0278 96.712C94.8717 95.5233 93.7837 94.6866 92.5978 94.8431Z" fill="#EDEFF0"/>
<path d="M48.3496 65.6488L30.0972 68.0573C28.9112 68.2138 28.0764 69.3042 28.2325 70.4929C28.3887 71.6815 29.4766 72.5183 30.6626 72.3618L48.915 69.9533C50.101 69.7968 50.9358 68.7064 50.7797 67.5177C50.6236 66.3291 49.5356 65.4923 48.3496 65.6488Z" fill="#EDEFF0"/>
<path d="M51.1747 87.1717L32.9223 89.5802C31.7363 89.7367 30.9015 90.8271 31.0576 92.0158C31.2137 93.2044 32.3017 94.0412 33.4877 93.8847L51.7401 91.4762C52.9261 91.3197 53.7609 90.2293 53.6048 89.0406C53.4486 87.852 52.3607 87.0152 51.1747 87.1717Z" fill="#EDEFF0"/>
<path d="M54.003 108.694L35.7505 111.102C34.5646 111.259 33.7297 112.349 33.8859 113.538C34.042 114.727 35.13 115.563 36.3159 115.407L54.5684 112.998C55.7543 112.842 56.5891 111.751 56.433 110.563C56.2769 109.374 55.1889 108.537 54.003 108.694Z" fill="#EDEFF0"/>
</svg>
