<svg width="58" height="60" viewBox="0 0 58 60" fill="none" xmlns="http://www.w3.org/2000/svg">
<g clip-path="url(#clip0_1_213)">
<path d="M13.3677 43.8943H0V49.3803H13.3677V43.8943Z" fill="#285F9D"/>
<path d="M57.9927 43.894H44.625V49.38H57.9927V43.894Z" fill="#285F9D"/>
<path d="M32.2735 43.9053V49.3751H30.1924L30.1888 47.5291H27.7352L27.7209 49.3751H25.6631V43.9053H27.7209L27.7227 45.7441H30.2193L30.2157 43.9053H32.2735Z" fill="#285F9D"/>
<path d="M17.8223 43.9053L20.3672 43.9071L21.8412 46.3678V43.9053H23.8685V49.3841H21.1033L19.8496 46.8642V49.3841H17.8223V43.9053Z" fill="#285F9D"/>
<path d="M40.1535 45.7429L40.1517 43.9077H34.1055V49.3704H40.1517V47.528H36.1239L36.1221 45.7429H40.1535Z" fill="#285F9D"/>
<path d="M4.45589 40.2358H0V36.5778L4.45589 32.9199V40.2358Z" fill="#285F9D"/>
<path d="M13.3682 40.2354H8.91235V25.6181L13.3682 21.9458V40.2354Z" fill="#285F9D"/>
<path d="M22.3079 40.2375H17.8467V14.632L22.3079 10.9741V40.2375Z" fill="#285F9D"/>
<path d="M26.7686 3.65792V40.2372H31.2334L31.2298 3.65792L29.0502 0L26.7686 3.65792Z" fill="#285F9D"/>
<path d="M53.54 40.2363H57.9959V36.6143L53.54 32.9922V40.2363Z" fill="#285F9D"/>
<path d="M44.6179 40.2354H49.0774V25.6181L44.6179 21.9458V40.2354Z" fill="#285F9D"/>
<path d="M35.6963 40.2366H40.1522V14.6203L35.6963 10.9463V40.2366Z" fill="#285F9D"/>
<path d="M2.13515 54.2633C2.48259 54.2633 2.80318 54.0662 2.80318 53.6486C2.80318 53.2812 2.51125 53.041 2.13515 53.041C1.75905 53.041 1.45996 53.2812 1.45996 53.6486C1.45996 54.0662 1.78054 54.2633 2.13515 54.2633Z" fill="#285F9D"/>
<path d="M3.08402 57.202H2.68285C1.90557 57.202 1.37903 56.8704 1.37903 56.0639V54.8721H0V56.2198C0 57.6769 0.897267 58.5175 2.46793 58.5175H4.46126V54.8721H3.08223V57.202H3.08402Z" fill="#285F9D"/>
<path d="M20.5602 56.5645C20.5602 57.0502 20.3077 57.3208 19.8904 57.3208C19.4731 57.3208 19.2259 57.0646 19.2259 56.5914V54.8583H17.9848V56.4086C17.9848 57.1111 17.4278 57.2599 17.0553 57.2599H16.7168V54.8583H15.4811V57.2599H12.2305V57.0036C12.2305 55.5125 11.5338 54.8368 10.1583 54.8368H9.4545L10.5094 53.041H9.00139L8.05935 54.844C8.06652 55.3781 8.25098 55.8154 8.44441 56.0932H10.316C10.7207 56.0932 10.9804 56.3369 10.9804 56.7742V57.2599H6.4869V53.041H5.25293V58.5163H17.0517C17.675 58.5163 18.1747 58.3137 18.5114 57.9499C18.7907 58.3675 19.2886 58.5163 19.885 58.5163C21.2193 58.5163 21.7906 57.8621 21.7906 56.4301V54.3565H20.5566V56.5645H20.5602Z" fill="#285F9D"/>
<path d="M24.035 59.4185C24.035 59.2966 24.121 59.216 24.2482 59.216H24.5867V58.7769H24.241C23.7503 58.7769 23.3975 58.9991 23.3975 59.5529V59.9974H24.7657V59.4776H24.035V59.4167V59.4185Z" fill="#285F9D"/>
<path d="M24.6138 54.3564H23.3799V56.7096H24.6138V54.3564Z" fill="#285F9D"/>
<path d="M27.9902 57.2599H27.367C26.9228 57.2599 26.6703 56.9893 26.6309 56.4695V53.041H25.3898V56.4767C25.3898 56.9767 25.0781 57.2599 24.5462 57.2599H22.5869L22.8394 58.5163H24.3994C25.2017 58.5163 25.7802 58.3137 26.1455 57.9087C26.3515 58.2797 26.81 58.5163 27.367 58.5163H29.226V53.041H27.992V57.2599H27.9902Z" fill="#285F9D"/>
<path d="M32.4009 54.202C32.7394 54.202 33.0385 54.0139 33.0385 53.6285C33.0385 53.2773 32.7591 53.0479 32.4009 53.0479C32.0427 53.0479 31.7705 53.2773 31.7705 53.6285C31.7705 54.0139 32.0696 54.202 32.4009 54.202Z" fill="#285F9D"/>
<path d="M33.8863 54.2025C34.2248 54.2025 34.5239 54.0144 34.5239 53.629C34.5239 53.2777 34.2516 53.0483 33.8863 53.0483C33.5209 53.0483 33.2559 53.2777 33.2559 53.629C33.2559 54.0144 33.5549 54.2025 33.8863 54.2025Z" fill="#285F9D"/>
<path d="M37.6607 58.8452C37.3079 58.8452 37.0303 59.0675 37.0303 59.4187C37.0303 59.8041 37.3294 59.9994 37.6607 59.9994C37.992 59.9994 38.2983 59.8041 38.2983 59.4187C38.2983 59.0675 38.0189 58.8452 37.6607 58.8452Z" fill="#285F9D"/>
<path d="M39.1412 58.8452C38.783 58.8452 38.5107 59.0675 38.5107 59.4187C38.5107 59.8041 38.8098 59.9994 39.1412 59.9994C39.4725 59.9994 39.7787 59.8041 39.7787 59.4187C39.7787 59.0675 39.5065 58.8452 39.1412 58.8452Z" fill="#285F9D"/>
<path d="M41.2072 54.2066C41.5386 54.2066 41.8448 54.0184 41.8448 53.6188C41.8448 53.2675 41.5654 53.0381 41.2072 53.0381C40.8491 53.0381 40.5625 53.2675 40.5625 53.6188C40.5625 54.0166 40.8688 54.2066 41.2072 54.2066Z" fill="#285F9D"/>
<path d="M45.4315 54.5805H44.1098V53.041H42.874V57.2599H41.812V54.8476H40.578V57.2599H38.9644V54.8476H37.7304V57.2599H34.5389V54.3565H33.2978V54.5805C31.9492 54.5877 31.0537 55.3763 31.0537 56.552V56.5591C31.0537 57.733 31.8901 58.5163 33.1438 58.5163H47.6146V56.8226C47.6146 55.405 46.8248 54.5877 45.4315 54.5823M33.2978 57.2617H33.0327C32.5886 57.2617 32.216 57.0126 32.216 56.5591V56.552C32.216 56.086 32.5886 55.8369 33.0327 55.8369H33.2978V57.2617ZM46.3735 57.2617H44.1098V55.844H45.5443C46.0547 55.844 46.3735 56.12 46.3735 56.6004V57.2617Z" fill="#285F9D"/>
<path d="M54.5561 57.2588H51.9054V54.5794H50.6697C49.3157 54.5794 48.4131 55.3698 48.4131 56.5508V56.558C48.4131 57.7319 49.2495 58.5151 50.5049 58.5151H50.6571C50.6106 58.7714 50.4046 58.8395 50.0787 58.8395C49.6668 58.8395 49.2423 58.8055 48.8698 58.7373L49.0757 59.9184C49.4214 59.9794 49.7456 59.9991 50.084 59.9991C51.1532 59.9991 51.7496 59.5869 51.8768 58.5133H55.7882V53.0381H54.5543V57.257L54.5561 57.2588ZM50.6571 57.2588H50.3921C49.9479 57.2588 49.5754 57.0097 49.5754 56.5562V56.549C49.5754 56.0831 49.9479 55.834 50.3921 55.834H50.6571V57.2588Z" fill="#285F9D"/>
<path d="M58.0024 53.041H56.7666V58.5163H58.0024V53.041Z" fill="#285F9D"/>
</g>
<defs>
<clipPath id="clip0_1_213">
<rect width="58" height="60" fill="white"/>
</clipPath>
</defs>
</svg>
